<svg width="87" height="85" viewBox="0 0 87 85" fill="none" xmlns="http://www.w3.org/2000/svg">
<g clip-path="url(#clip0_144_341)">
<path d="M55.1378 39.009H53.2483V84.2649H55.1378V39.009Z" fill="white"/>
<path d="M47.5159 53.4081L46.1798 54.7803L53.5254 62.3239L54.8615 60.9517L47.5159 53.4081Z" fill="white"/>
<path d="M60.8688 53.4071L53.5232 60.9507L54.8593 62.3228L62.2049 54.7792L60.8688 53.4071Z" fill="white"/>
<path d="M19.3054 73.9203C8.6583 73.9203 0 65.0286 0 54.0945C0 43.1604 17.7566 15.1696 18.5116 13.9689L19.3054 12.7063L20.0992 13.9689C20.8541 15.1696 38.6107 43.5149 38.6107 54.0945C38.6107 64.6742 29.9524 73.9203 19.3054 73.9203ZM19.3054 16.3082C15.798 22.0322 1.88955 45.3003 1.88955 54.0901C1.88955 63.952 9.7023 71.9753 19.3054 71.9753C28.9084 71.9753 36.7212 63.952 36.7212 54.0901C36.7212 45.3003 22.8127 22.0322 19.3054 16.3037V16.3082Z" fill="white"/>
<path d="M20.2501 37.1218H18.3606V84.2606H20.2501V37.1218Z" fill="white"/>
<path d="M10.7917 51.52L9.45557 52.8921L18.6345 62.3184L19.9706 60.9463L10.7917 51.52Z" fill="white"/>
<path d="M25.9838 43.9747L18.6382 51.5183L19.9743 52.8904L27.3199 45.3468L25.9838 43.9747Z" fill="white"/>
<path d="M70.0559 72.0328H37.666V70.0923H70.0559C77.9592 70.0923 84.3872 63.4911 84.3872 55.3747C84.3872 47.2583 77.9592 40.6571 70.0559 40.6571H69.1111L69.0162 39.7976C68.2311 32.5009 61.7212 26.7857 54.1888 26.7857C47.0879 26.7857 41.3459 32.2572 40.5349 39.7976L38.6539 39.585C39.5728 31.0433 46.1043 24.8408 54.1845 24.8408C62.2647 24.8408 69.4908 30.8749 70.7763 38.7299C79.3872 39.1198 86.2724 46.4387 86.2724 55.3747C86.2724 64.3107 78.9946 72.0328 70.0473 72.0328H70.0559Z" fill="white"/>
<path d="M52.1051 22.484C48.024 14.4473 43.2052 6.54804 41.3416 3.55756C39.4779 6.55247 34.6548 14.4518 30.578 22.484L28.9042 21.589C34.094 11.3505 40.4874 1.33353 40.5478 1.23606L41.3373 0L42.1267 1.23606C42.1914 1.33353 48.5806 11.3505 53.779 21.589L52.1051 22.484Z" fill="white"/>
</g>
<defs>
<clipPath id="clip0_144_341">
<rect width="86.281" height="84.2606" fill="white"/>
</clipPath>
</defs>
</svg>
