<svg width="79" height="82" viewBox="0 0 79 82" fill="none" xmlns="http://www.w3.org/2000/svg">
<g clip-path="url(#clip0_144_352)">
<path d="M77.7566 82.0001H1.24345C0.55628 82.0001 0 81.4425 0 80.7537C0 80.0649 0.55628 79.5073 1.24345 79.5073H77.7525C78.4396 79.5073 78.9959 80.0649 78.9959 80.7537C78.9959 81.4425 78.4396 82.0001 77.7525 82.0001H77.7566Z" fill="white"/>
<path d="M74.607 82H4.02893V2.542C4.02893 1.1398 5.16194 0 6.55673 0H72.0833C73.4781 0 74.6111 1.1398 74.6111 2.542V82H74.607ZM6.51583 79.5031H72.116V2.542L6.55264 2.4969L6.51583 79.5072V79.5031Z" fill="white"/>
<path d="M55.8162 82H16.5944V27.5151C16.5944 26.4409 17.4656 25.5635 18.5413 25.5635H53.8692C54.9409 25.5635 55.8162 26.4368 55.8162 27.5151V82ZM19.0854 79.5031H53.3252V28.0563H19.0854V79.5031Z" fill="white"/>
<path d="M36.2032 81.1431C35.516 81.1431 34.9597 80.5855 34.9597 79.8967V27.4249C34.9597 26.7361 35.516 26.1785 36.2032 26.1785C36.8903 26.1785 37.4466 26.7361 37.4466 27.4249V79.8967C37.4466 80.5855 36.8903 81.1431 36.2032 81.1431Z" fill="white"/>
<path d="M59.9392 47.8757C59.6201 47.8757 59.3011 47.7527 59.0598 47.5108C58.573 47.0229 58.573 46.2357 59.0598 45.7478L63.8331 40.9631L68.7415 45.7314C69.2364 46.2111 69.2487 47.0024 68.7701 47.4944C68.2916 47.9905 67.5021 48.0028 67.0113 47.5231L63.8659 44.4645L60.8268 47.5108C60.5854 47.7527 60.2664 47.8757 59.9474 47.8757H59.9392Z" fill="white"/>
<path d="M63.9804 64.9195L59.072 60.1512C58.5771 59.6715 58.5648 58.8802 59.0434 58.3882C59.522 57.8921 60.3114 57.8839 60.8022 58.3595L63.9477 61.4181L66.9868 58.3718C67.4735 57.8839 68.2589 57.8839 68.7456 58.3718C69.2323 58.8597 69.2323 59.6469 68.7456 60.1348L63.9722 64.9195H63.9804Z" fill="white"/>
</g>
<defs>
<clipPath id="clip0_144_352">
<rect width="79" height="82" fill="white"/>
</clipPath>
</defs>
</svg>
