<svg width="91" height="78" viewBox="0 0 91 78" fill="none" xmlns="http://www.w3.org/2000/svg">
<path d="M90.2127 31.9738H0.787354V23.5618L45.5001 0L90.2127 23.6418V31.9738ZM2.7821 29.9995H88.218V24.8213L45.5001 2.23922L2.7821 24.7464V29.9995Z" fill="white"/>
<path d="M21.7904 29.9995H19.7957V75.2387H21.7904V29.9995Z" fill="white"/>
<path d="M10.3873 29.9995H8.39258V75.2387H10.3873V29.9995Z" fill="white"/>
<path d="M82.6124 29.9995H80.6177V75.2387H82.6124V29.9995Z" fill="white"/>
<path d="M71.2045 29.9995H69.2097V75.2387H71.2045V29.9995Z" fill="white"/>
<path d="M52.2013 29.9995H50.2065V75.2387H52.2013V29.9995Z" fill="white"/>
<path d="M40.7985 29.9995H38.8037V75.2387H40.7985V29.9995Z" fill="white"/>
<path d="M90.2127 75.1487H0.787354V77.123H90.2127V75.1487Z" fill="white"/>
</svg>
