<svg width="141" height="85" viewBox="0 0 141 85" fill="none" xmlns="http://www.w3.org/2000/svg">
<g clip-path="url(#clip0_144_372)">
<path d="M28.6794 84.9999C12.8663 84.9999 0 72.1998 0 56.4678C0 40.7359 12.8663 27.9358 28.6794 27.9358C44.4926 27.9358 57.3588 40.7359 57.3588 56.4678C57.3588 72.1998 44.4926 84.9999 28.6794 84.9999ZM28.6794 30.7694C14.4384 30.7694 2.8482 42.3 2.8482 56.4678C2.8482 70.6357 14.4384 82.1663 28.6794 82.1663C42.9204 82.1663 54.5106 70.6357 54.5106 56.4678C54.5106 42.3 42.9204 30.7694 28.6794 30.7694Z" fill="white"/>
<path d="M112.321 84.9999C96.5075 84.9999 83.6412 72.1998 83.6412 56.4678C83.6412 40.7359 96.5075 27.9358 112.321 27.9358C128.134 27.9358 141 40.7359 141 56.4678C141 72.1998 128.134 84.9999 112.321 84.9999ZM112.321 30.7694C98.0796 30.7694 86.4894 42.3 86.4894 56.4678C86.4894 70.6357 98.0796 82.1663 112.321 82.1663C126.562 82.1663 138.152 70.6357 138.152 56.4678C138.152 42.3 126.562 30.7694 112.321 30.7694Z" fill="white"/>
<path d="M96.5145 0H83.3522C82.7175 0 82.203 0.511849 82.203 1.14325V1.69733C82.203 2.32873 82.7175 2.84058 83.3522 2.84058H96.5145C97.1492 2.84058 97.6637 2.32873 97.6637 1.69733V1.14325C97.6637 0.511849 97.1492 0 96.5145 0Z" fill="white"/>
<path d="M96.1765 0.978774L93.4642 1.86646L111.669 56.9188L114.381 56.0311L96.1765 0.978774Z" fill="white"/>
<path d="M65.5791 58.9228H30.6322C29.4478 58.9228 28.3692 58.3266 27.7488 57.3236C27.1354 56.3277 27.0861 55.1213 27.6148 54.0833L46.0717 17.8992H99.8703C100.773 17.8992 101.569 18.4042 101.936 19.2248C102.302 20.0384 102.169 20.9572 101.576 21.6305L70.4929 56.7275C69.2521 58.1302 67.4614 58.9298 65.5791 58.9298V58.9228ZM47.8271 20.7327L30.1669 55.3668C30.0612 55.5772 30.1317 55.7525 30.1881 55.8437C30.2445 55.9349 30.3784 56.0892 30.6393 56.0892H65.5861C66.6507 56.0892 67.6588 55.6403 68.3568 54.8478L98.5731 20.7327H47.8342H47.8271Z" fill="white"/>
<path d="M42.6368 9.21224L40.17 10.6428L67.4418 57.1848L69.9085 55.7543L42.6368 9.21224Z" fill="white"/>
<path d="M50.7247 8.62002C50.7247 8.62002 50.1748 11.2362 36.0255 11.2362C36.0255 11.2362 31.6404 11.671 31.6404 8.62002C31.6404 5.56903 37.0125 5.56201 39.8677 5.56201C42.723 5.56201 50.2876 6.32651 50.7247 8.62002Z" fill="white"/>
</g>
<defs>
<clipPath id="clip0_144_372">
<rect width="141" height="85" fill="white"/>
</clipPath>
</defs>
</svg>
