<svg width="15" height="18" viewBox="0 0 15 18" fill="none" xmlns="http://www.w3.org/2000/svg">
<path d="M10.898 2.49992H13.6155C13.7957 2.49992 13.9685 2.58772 14.0959 2.744C14.2233 2.90028 14.2949 3.11224 14.2949 3.33325V16.6666C14.2949 16.8876 14.2233 17.0996 14.0959 17.2558C13.9685 17.4121 13.7957 17.4999 13.6155 17.4999H1.38689C1.20671 17.4999 1.03391 17.4121 0.906502 17.2558C0.779096 17.0996 0.70752 16.8876 0.70752 16.6666V3.33325C0.70752 3.11224 0.779096 2.90028 0.906502 2.744C1.03391 2.58772 1.20671 2.49992 1.38689 2.49992H4.10436V0.833252H5.4631V2.49992H9.53931V0.833252H10.898V2.49992ZM9.53931 4.16659H5.4631V5.83325H4.10436V4.16659H2.06626V7.49992H12.9362V4.16659H10.898V5.83325H9.53931V4.16659ZM12.9362 9.16658H2.06626V15.8333H12.9362V9.16658Z" fill="black"/>
</svg>
