<svg width="74" height="87" viewBox="0 0 74 87" fill="none" xmlns="http://www.w3.org/2000/svg">
<g clip-path="url(#clip0_144_380)">
<path d="M39.0601 0H37.198V10.4356H39.0601V0Z" fill="white"/>
<path d="M32.5559 21.7717H30.6938V28.0662H32.5559V21.7717Z" fill="white"/>
<path d="M39.0601 26.2043H37.198V32.5031H39.0601V26.2043Z" fill="white"/>
<path d="M45.5601 21.4062H43.698V27.705H45.5601V21.4062Z" fill="white"/>
<path d="M60.2564 29.7104H58.3943V41.0335H60.2564V29.7104Z" fill="white"/>
<path d="M15.6057 29.7104H13.7437V41.0335H15.6057V29.7104Z" fill="white"/>
<path d="M46.8173 18.8702H29.4365V17.9393C29.4365 12.7758 33.3347 8.57373 38.1247 8.57373C42.9148 8.57373 46.8173 12.7758 46.8173 17.9393V18.8702ZM31.3508 17.0084H44.903C44.4854 13.3109 41.6053 10.4355 38.1291 10.4355C34.6529 10.4355 31.7728 13.3065 31.3552 17.0084H31.3508Z" fill="white"/>
<path d="M54.7268 70.7397H19.2734V0H54.7311V70.7397H54.7268ZM21.1312 68.8779H52.8647V1.8618H21.1355V68.8779H21.1312Z" fill="white"/>
<path d="M73.9999 70.7397H52.8645V0H73.9999V70.7397ZM54.7266 68.8779H72.1378V1.8618H54.7266V68.8779Z" fill="white"/>
<path d="M21.1354 70.7397H0V0H21.1354V70.7397ZM1.86207 68.8779H19.2733V1.8618H1.86207V68.8779Z" fill="white"/>
<path d="M74 87H0V68.8779H74V87ZM1.86207 85.1382H72.1379V70.7441H1.86207V85.1382Z" fill="white"/>
</g>
<defs>
<clipPath id="clip0_144_380">
<rect width="74" height="87" fill="white"/>
</clipPath>
</defs>
</svg>
