<svg id="Grupo_29" data-name="Grupo 29" xmlns="http://www.w3.org/2000/svg" width="15.362" height="12.48" viewBox="0 0 15.362 12.48">
  <path id="Trazado_18" data-name="Trazado 18" d="M15.362,49.477a6.565,6.565,0,0,1-1.814.5,3.128,3.128,0,0,0,1.385-1.74,6.293,6.293,0,0,1-2,.763,3.149,3.149,0,0,0-5.447,2.153,3.243,3.243,0,0,0,.073.718,8.913,8.913,0,0,1-6.491-3.294,3.15,3.15,0,0,0,.967,4.208A3.11,3.11,0,0,1,.614,52.4v.035a3.163,3.163,0,0,0,2.523,3.094,3.143,3.143,0,0,1-.828.1,2.784,2.784,0,0,1-.6-.053,3.179,3.179,0,0,0,2.944,2.194,6.327,6.327,0,0,1-3.9,1.343A5.9,5.9,0,0,1,0,59.067,8.865,8.865,0,0,0,4.831,60.48a8.9,8.9,0,0,0,8.962-8.96c0-.139,0-.276-.012-.407a6.282,6.282,0,0,0,1.58-1.636Z" transform="translate(0 -48)" fill="#fff"/>
</svg>
