<svg xmlns="http://www.w3.org/2000/svg" width="17.27" height="12.48" viewBox="0 0 17.27 12.48">
  <path id="youtube" d="M8.633,12.98h0a45.772,45.772,0,0,1-6.433-.4A2.669,2.669,0,0,1,.318,10.7,19.589,19.589,0,0,1,0,6.757,19.957,19.957,0,0,1,.316,2.779v0A2.725,2.725,0,0,1,2.193.886l.007,0A47.463,47.463,0,0,1,8.629.5h.009a45.612,45.612,0,0,1,6.435.4,2.669,2.669,0,0,1,1.876,1.874,19,19,0,0,1,.318,4,19.643,19.643,0,0,1-.316,3.942v0a2.67,2.67,0,0,1-1.879,1.877h0a47.505,47.505,0,0,1-6.428.384ZM1.621,3.125a19.3,19.3,0,0,0-.271,3.623v.018a18.135,18.135,0,0,0,.271,3.59,1.316,1.316,0,0,0,.926.923,45.159,45.159,0,0,0,6.086.352,46.988,46.988,0,0,0,6.088-.339,1.316,1.316,0,0,0,.924-.923,18.2,18.2,0,0,0,.271-3.589c0-.007,0-.014,0-.021a17.564,17.564,0,0,0-.27-3.628v0A1.317,1.317,0,0,0,14.72,2.2a44.989,44.989,0,0,0-6.086-.352,47.052,47.052,0,0,0-6.087.339A1.353,1.353,0,0,0,1.621,3.125ZM16.3,10.542h0ZM6.914,9.472V4.008L11.636,6.74Zm0,0" transform="translate(0.001 -0.5)" fill="#fff"/>
</svg>
