<svg width="93" height="23" viewBox="0 0 93 23" fill="none" xmlns="http://www.w3.org/2000/svg">
<path d="M38.5433 17.6071H30.8737V13.768H38.7156H38.7385H38.7615C39.7374 13.8823 40.4837 14.6935 40.4837 15.6533C40.4607 16.693 39.5882 17.5956 38.5433 17.6071ZM30.8737 4.99305H38.8993H38.9337H38.9567C39.8637 5.15301 40.5296 5.91853 40.5296 6.82116C40.5296 7.74665 39.8178 8.615 38.8763 8.74069L30.8622 8.75211L30.8737 4.99305ZM42.2863 11.1287C45.2256 10.1575 45.7537 7.70094 45.7537 5.70144C45.7537 2.63934 43.5837 0 37.1656 0H25.1904V22.9543H37.1311C43.5837 22.9543 45.9604 19.6637 45.9604 16.3502C45.9489 12.3626 42.2863 11.1287 42.2863 11.1287ZM72.7696 0V23H93V17.7556H78.3956V13.7452H91.5533V8.71783H78.3956L78.3841 5.0159H92.977L93 0H72.7696ZM64.0552 7.15251C63.9519 7.90661 63.1941 8.72926 62.2526 8.72926H54.3533V5.0616H62.2526C63.1941 5.0616 63.9404 5.74714 64.0552 6.6612V7.15251ZM60.9896 0.0342772H48.7619V23H54.3763V13.7109H60.5648C62.333 13.7337 63.7107 15.1848 63.7107 16.9672V22.9886H69.2104L69.1989 15.5733C69.1989 12.1341 65.8693 11.1287 65.8693 11.1287C65.8693 11.1287 69.2793 10.1118 69.2793 6.05564C69.2793 1.07402 64.9852 0.0342772 60.9896 0.0342772ZM21.5393 17.4471C21.4589 17.4471 13.8581 17.5956 11.2404 17.3443C7.01519 16.9329 5.52259 13.8137 5.52259 11.2772C5.52259 8.11227 7.69259 5.77 11.0567 5.33582C12.6526 5.13015 21.4015 5.22156 21.5048 5.22156H21.6885L21.7 0H21.5163L11.6078 0.0228515C10.5056 0.0914059 8.68 0.194237 6.80852 0.959762C5.00593 1.78241 3.44444 3.03925 2.27333 4.60457C0.792222 6.60407 0 8.9692 0 11.4486C0 12.2255 0.0574074 13.0025 0.183704 13.7452C0.895556 17.23 3.19185 20.1093 6.47556 21.6518C7.58926 22.1431 9.3 22.7258 12.7559 22.92C12.7674 22.92 14.6159 22.9543 14.6159 22.9543L21.5163 22.9657H21.7L21.723 17.4357L21.5393 17.4471Z" fill="white"/>
</svg>
