<svg width="46" height="46" viewBox="0 0 46 46" fill="none" xmlns="http://www.w3.org/2000/svg">
<path d="M1.91699 27.7917C1.91699 23.3289 4.26355 19.4141 7.79016 17.214C8.74931 9.66766 15.1935 3.83333 23.0003 3.83333C30.8071 3.83333 37.2513 9.66766 38.2104 17.214C41.7371 19.4141 44.0837 23.3289 44.0837 27.7917C44.0837 34.3497 39.0164 39.7243 32.5837 40.2138L13.417 40.25C6.98424 39.7243 1.91699 34.3497 1.91699 27.7917ZM32.2929 36.3914C36.7653 36.0512 40.2503 32.3075 40.2503 27.7917C40.2503 24.7767 38.6948 22.0344 36.1814 20.4664L34.6372 19.5028L34.4078 17.6973C33.6829 11.9946 28.8055 7.66666 23.0003 7.66666C17.195 7.66666 12.3177 11.9946 11.5929 17.6973L11.3634 19.5028L9.81918 20.4664C7.30582 22.0344 5.75033 24.7767 5.75033 27.7917C5.75033 32.3075 9.23546 36.0512 13.7078 36.3914L14.0399 36.4167H31.9607L32.2929 36.3914ZM24.917 24.9167V32.5833H21.0837V24.9167H15.3337L23.0003 15.3333L30.667 24.9167H24.917Z" fill="#012A2D"/>
</svg>
